name C:\Users\Nicos\Desktop\Gil_twoSteps\Study2\ExperimentalData\IK_Splined\Splined_80_meshInts_p02_maxVel_01.mot
datacolumns 38
datarows 6
range 0.22612658 0.22939617
endheader
                time	         pelvis_tilt	         pelvis_list	     pelvis_rotation	           pelvis_tx	           pelvis_ty	           pelvis_tz	       hip_flexion_r	     hip_adduction_r	      hip_rotation_r	        knee_angle_r	       ankle_angle_r	    subtalar_angle_r	         mtp_angle_r	       hip_flexion_l	     hip_adduction_l	      hip_rotation_l	        knee_angle_l	       ankle_angle_l	    subtalar_angle_l	         mtp_angle_l	    lumbar_extension	      lumbar_bending	     lumbar_rotation	          arm_flex_r	           arm_add_r	           arm_rot_r	        elbow_flex_r	           pro_sup_r	        wrist_flex_r	         wrist_dev_r	          arm_flex_l	           arm_add_l	           arm_rot_l	        elbow_flex_l	           pro_sup_l	        wrist_flex_l	         wrist_dev_l	
          0.22612658	         -1.57494069	          2.57279281	          5.54002948	         -0.18100057	          1.00087170	          0.31100103	         -9.86631475	         -0.82723294	        -10.47864949	        -84.40869514	        -35.97119150	        -26.18633615	         -8.32740114	         52.73996287	          6.06673255	          6.11699756	        -24.75758113	        -10.96274304	         -4.18953281	          6.28357242	        -11.89090019	        -13.70472043	          3.11600997	         10.60227888	        -20.99233336	         13.10467308	        149.65604863	         56.76464631	        -20.97625266	         15.18434421	        -57.99322327	         -7.05513953	        -45.68181099	         80.05063221	         61.41872058	          9.34289824	         24.98567690	
          0.22656073	         -1.53029308	          2.53286154	          5.59772873	         -0.17688245	          1.00099886	          0.31101708	         -9.69317339	         -0.77088783	        -10.51799704	        -84.86006286	        -35.89118965	        -26.17693616	         -8.30377059	         52.52247997	          6.01547171	          6.01292022	        -24.56585429	        -11.03010020	         -4.17780322	          6.26739933	        -12.04043868	        -13.67146396	          3.19182197	         10.06712948	        -20.99003641	         12.61891563	        149.56817512	         56.73096304	        -21.02409138	         15.22568522	        -57.68756088	         -7.21009662	        -45.42716372	         80.23525612	         61.45818415	          9.36327346	         25.01987566	
          0.22793244	         -1.38769908	          2.41708824	          5.78469972	         -0.16388408	          1.00138370	          0.31105728	         -9.14117527	         -0.60645911	        -10.65046248	        -86.28122775	        -35.63363594	        -26.11841747	         -8.20427685	         51.84333992	          5.86381949	          5.66476352	        -23.99903400	        -11.23815491	         -4.14787730	          6.21153447	        -12.51665908	        -13.57017511	          3.42000133	          8.38905836	        -20.96113563	         11.08067495	        149.25812940	         56.61638455	        -21.17591609	         15.36782665	        -56.71151549	         -7.69966724	        -44.59927392	         80.80661433	         61.58428790	          9.42707235	         25.12928889	
          0.22892658	         -1.28265569	          2.34331396	          5.92445640	         -0.15447580	          1.00164617	          0.31107651	         -8.73683885	         -0.50100236	        -10.75467539	        -87.30633499	        -35.44312032	        -26.05202114	         -8.11049210	         51.35832934	          5.76415969	          5.39613369	        -23.62509265	        -11.38386289	         -4.13328424	          6.16686509	        -12.86523086	        -13.50057019	          3.57357840	          7.18780265	        -20.92020459	          9.96685016	        149.00096636	         56.52627172	        -21.28639911	         15.48185767	        -55.99485913	         -8.05340175	        -43.97800577	         81.20856255	         61.67646398	          9.47273647	         25.20969670	
          0.22896203	         -1.27888174	          2.34084246	          5.92950304	         -0.15414056	          1.00165527	          0.31107704	         -8.72236188	         -0.49746268	        -10.75852235	        -87.34280381	        -35.43627536	        -26.04932579	         -8.10683916	         51.34114352	          5.76076991	          5.38633362	        -23.61232850	        -11.38897322	         -4.13287740	          6.16521227	        -12.87770905	        -13.49814898	          3.57885851	          7.14524034	        -20.91844516	          9.92721043	        148.99127518	         56.52296124	        -21.29034261	         15.48609364	        -55.96917196	         -8.06598346	        -43.95553987	         81.22269736	         61.67975486	          9.47435539	         25.21257813	
          0.22939617	         -1.23248582	          2.31145547	          5.99167218	         -0.15003520	          1.00176526	          0.31108275	         -8.54470301	         -0.45535054	        -10.80638779	        -87.78906510	        -35.35215534	        -26.01462381	         -8.06046227	         51.13120347	          5.72017009	          5.26515700	        -23.45912941	        -11.45108325	         -4.12853647	          6.14464589	        -13.03082973	        -13.46882934	          3.64240583	          6.62547553	        -20.89525699	          9.44223399	        148.86959002	         56.48191350	        -21.33866428	         15.53892808	        -55.65378752	         -8.21989120	        -43.67863564	         81.39472773	         61.72006495	          9.49413473	         25.24794638	
